<?xml version="1.0" standalone="no"?><!DOCTYPE svg PUBLIC "-//W3C//DTD SVG 20010904//EN"
    "http://www.w3.org/TR/2001/REC-SVG-20010904/DTD/svg10.dtd">
<svg version="1.0" xmlns="http://www.w3.org/2000/svg" width="1000.000000pt" height="1000.000000pt"
    viewBox="0 0 1000.000000 1000.000000" preserveAspectRatio="xMidYMid meet">
    <metadata>
        Created by potrace 1.14, written by Peter Selinger 2001-2017
    </metadata>
    <g transform="translate(0.000000,1000.000000) scale(0.100000,-0.100000)" fill="#000000"
        stroke="none">
        <path d="M4892 8850 l-53 -99 -97 -53 c-53 -29 -98 -61 -100 -70 -2 -12 24
-31 96 -69 l99 -53 55 -101 c30 -55 61 -100 68 -100 7 0 38 45 69 101 l55 101
98 52 c71 38 98 58 96 69 -2 9 -47 41 -100 70 l-98 53 -52 99 c-31 58 -59 100
-68 100 -9 0 -37 -41 -68 -100z" />
        <path d="M3759 8424 c-39 -70 -46 -77 -116 -115 -40 -23 -72 -46 -70 -53 2 -6
36 -29 75 -51 65 -36 75 -46 109 -109 21 -38 43 -71 50 -73 6 -3 30 29 52 69
37 67 46 76 113 114 39 23 74 46 76 52 2 6 -29 27 -69 48 -72 38 -107 76 -139
153 -21 53 -37 46 -81 -35z" />
        <path d="M6008 8478 c-8 -13 -27 -46 -41 -75 -23 -45 -36 -57 -102 -93 -41
-23 -75 -47 -75 -53 0 -7 33 -30 74 -51 69 -37 75 -43 112 -112 21 -41 44 -74
51 -74 6 0 30 34 53 75 38 70 46 77 111 111 48 25 69 42 67 53 -2 9 -28 30
-59 46 -77 41 -86 50 -119 115 -38 75 -53 87 -72 58z" />
        <path d="M4670 7893 c-117 -7 -321 -35 -460 -63 -835 -171 -1577 -679 -2053
-1405 -182 -278 -330 -612 -417 -940 -29 -109 -85 -394 -78 -399 1 -2 22 -6
44 -9 l42 -5 12 77 c72 462 261 926 536 1318 325 461 784 841 1292 1068 743
332 1591 364 2350 89 438 -159 824 -405 1157 -739 418 -417 700 -917 840
-1485 19 -77 39 -176 46 -221 l13 -81 39 5 c21 3 41 8 44 11 8 8 -25 183 -64
339 -205 821 -736 1538 -1468 1982 -553 335 -1214 497 -1875 458z" />
        <path d="M4635 7604 c-16 -2 -73 -9 -125 -15 -150 -16 -379 -66 -530 -115
-859 -276 -1535 -912 -1864 -1751 -67 -171 -143 -453 -162 -600 -6 -52 -6 -53
20 -53 20 0 26 5 26 21 0 12 12 78 26 148 230 1116 1107 2009 2215 2255 210
46 314 58 569 63 272 6 423 -7 649 -53 1034 -213 1888 -993 2195 -2007 28 -91
62 -235 92 -384 3 -15 9 -20 24 -16 26 7 25 22 -5 166 -229 1104 -1077 1985
-2173 2261 -241 60 -383 77 -672 81 -140 2 -268 1 -285 -1z" />
        <path d="M4705 6978 c4 -128 8 -234 10 -236 1 -1 57 0 124 4 l121 7 0 32 0 32
-88 -5 -89 -5 -6 129 c-4 71 -7 162 -7 202 l0 72 -36 0 -36 0 7 -232z" />
        <path d="M4348 7153 c-10 -2 -18 -7 -18 -9 0 -14 -72 -459 -74 -462 -2 -1 -46
26 -98 61 l-94 64 18 29 c22 35 23 73 4 119 -19 44 -58 68 -109 68 -47 0 -197
-58 -197 -76 0 -22 172 -417 182 -417 8 0 46 17 56 25 1 1 -13 39 -33 84 -19
46 -33 86 -30 91 10 16 56 20 83 6 15 -8 56 -35 91 -61 62 -45 67 -47 95 -36
17 7 47 17 68 23 38 10 48 27 48 84 0 44 18 61 80 73 30 7 65 14 77 17 18 5
28 -3 58 -50 36 -56 46 -61 93 -48 21 7 14 19 -111 212 -133 206 -143 216
-189 203z m89 -181 c46 -74 46 -76 -31 -87 l-49 -8 6 34 c4 19 9 58 13 87 4
29 9 50 12 47 4 -3 25 -36 49 -73z m-417 -55 c19 -34 5 -75 -35 -98 -56 -32
-64 -29 -91 35 -14 35 -20 64 -15 69 17 17 85 35 106 27 11 -4 27 -19 35 -33z" />
        <path d="M5355 7146 c-57 -22 -120 -92 -139 -156 -51 -173 31 -295 208 -308
75 -5 96 6 96 54 0 20 -3 21 -37 14 -88 -20 -181 29 -202 107 -12 43 1 114 29
161 45 74 138 93 225 47 26 -14 49 -24 50 -23 2 2 5 19 7 38 3 32 0 37 -35 54
-51 25 -151 31 -202 12z" />
        <path d="M5762 7003 c-46 -23 -108 -96 -126 -150 -48 -141 8 -260 141 -299
111 -32 205 14 262 128 47 93 40 208 -17 272 -51 57 -190 84 -260 49z m171
-70 c38 -19 67 -70 67 -118 0 -50 -38 -131 -79 -170 -28 -26 -40 -30 -86 -30
-127 0 -183 127 -111 250 50 85 126 110 209 68z" />
        <path d="M3579 6853 c-13 -9 -25 -17 -27 -19 -2 -1 40 -67 92 -146 100 -149
112 -181 81 -224 -20 -30 -79 -56 -109 -48 -33 8 -63 42 -153 173 -43 63 -82
116 -88 117 -5 2 -21 -5 -34 -15 l-24 -18 93 -137 c50 -75 107 -148 125 -162
63 -48 143 -41 211 19 64 55 80 120 49 193 -14 33 -171 270 -185 279 -4 2 -18
-3 -31 -12z" />
        <path d="M6200 6709 c-115 -155 -130 -184 -130 -246 0 -47 4 -58 35 -92 44
-48 90 -71 145 -71 49 0 84 17 126 62 35 37 172 222 180 243 5 11 -30 45 -47
45 -4 0 -49 -58 -102 -129 -126 -171 -164 -190 -236 -119 -55 54 -44 88 84
258 23 30 51 69 63 87 l22 31 -29 21 -29 21 -82 -111z" />
        <path d="M3097 6472 c-59 -59 -107 -112 -107 -118 0 -6 9 -19 20 -29 20 -18
21 -18 65 25 l45 44 139 -138 139 -139 26 19 c14 11 26 23 26 29 0 5 -62 72
-137 147 l-137 138 44 45 c43 44 43 45 25 65 -10 11 -23 20 -29 20 -6 0 -60
-48 -119 -108z" />
        <path d="M6545 6339 c-88 -77 -166 -146 -173 -153 -11 -11 -9 -18 10 -41 l24
-28 133 119 c74 64 131 109 128 98 -34 -114 -107 -375 -107 -381 1 -4 11 -21
25 -37 l23 -29 157 139 c86 76 167 147 178 156 l22 17 -27 27 -27 27 -118
-104 c-65 -58 -123 -108 -130 -112 -7 -5 -5 17 8 60 11 38 36 125 56 196 l37
127 -20 27 c-11 15 -24 28 -30 30 -5 1 -81 -60 -169 -138z" />
        <path d="M4755 6186 c-244 -41 -473 -134 -669 -273 -108 -77 -286 -257 -365
-368 -115 -163 -208 -380 -252 -584 -26 -124 -36 -362 -20 -496 107 -917 995
-1541 1896 -1333 281 65 521 197 730 400 l110 107 -92 92 -92 93 -103 -100
c-196 -188 -405 -299 -666 -351 -116 -24 -375 -23 -482 1 -281 62 -492 178
-685 377 -143 147 -236 299 -300 492 -105 314 -84 659 60 961 93 197 266 396
450 518 226 151 449 218 719 218 263 0 499 -70 706 -209 130 -87 126 -70 39
-157 l-76 -76 -59 40 c-186 127 -384 186 -619 185 -490 -2 -905 -323 -1036
-802 -30 -109 -37 -353 -15 -475 78 -415 377 -730 806 -849 63 -17 103 -21
255 -21 164 1 189 3 280 28 190 51 379 162 520 305 l60 61 -265 265 -264 264
-77 -73 c-90 -87 -154 -116 -254 -116 -87 0 -162 29 -228 90 -146 133 -151
347 -12 485 69 69 141 99 240 100 102 0 164 -28 265 -122 l72 -66 91 92 92 92
-83 79 c-87 82 -179 137 -272 164 -170 48 -350 21 -496 -75 -251 -163 -341
-497 -208 -769 49 -99 170 -222 264 -267 173 -83 378 -85 538 -4 l59 30 79
-80 c90 -91 92 -82 -31 -143 -125 -62 -211 -81 -370 -81 -164 1 -224 14 -360
80 -166 80 -291 207 -375 380 -59 121 -84 227 -83 355 0 216 78 406 231 563
183 188 431 279 676 248 189 -24 343 -100 487 -238 47 -46 90 -83 95 -83 14 0
514 503 514 517 0 18 -190 193 -279 256 -161 117 -361 206 -566 253 -104 23
-145 28 -310 30 -126 2 -217 -1 -270 -10z" />
        <path d="M2806 6131 c-10 -11 -16 -24 -15 -30 2 -5 72 -60 154 -122 83 -62
164 -123 182 -136 l31 -24 77 101 76 101 -23 19 c-13 11 -25 19 -28 20 -3 0
-29 -32 -58 -71 -37 -49 -57 -68 -65 -61 -110 85 -298 222 -305 222 -5 0 -17
-9 -26 -19z" />
        <path d="M6897 5966 c-172 -62 -226 -224 -122 -365 39 -53 61 -65 96 -51 16 7
29 14 29 16 0 2 -20 23 -44 47 -73 74 -84 153 -29 218 31 36 115 79 156 79 74
0 137 -58 160 -148 l13 -51 32 19 31 19 -14 48 c-43 141 -177 215 -308 169z" />
        <path d="M2669 5918 c-7 -18 -9 -33 -3 -35 65 -25 292 -154 307 -174 24 -33
16 -76 -20 -119 -40 -48 -77 -42 -242 40 -78 39 -144 70 -146 70 -3 0 -11 -13
-20 -30 l-15 -30 147 -73 c82 -41 164 -77 183 -81 102 -18 190 69 190 189 0
81 -36 116 -210 205 -76 38 -143 70 -148 70 -5 0 -16 -14 -23 -32z" />
        <path d="M7232 5659 c-16 -6 -22 -15 -20 -30 3 -19 -15 -29 -152 -85 -85 -35
-156 -64 -157 -64 -2 0 -3 6 -3 14 0 22 -17 28 -42 15 -13 -6 -24 -13 -26 -14
-1 -1 5 -18 13 -38 8 -21 21 -53 29 -72 14 -33 16 -34 45 -24 25 9 30 15 25
33 -4 19 9 27 148 83 150 61 159 63 171 30 1 -5 15 -3 30 4 19 8 26 18 22 28
-30 82 -51 131 -55 130 -3 0 -15 -4 -28 -10z" />
        <path d="M2459 5448 c-27 -53 -37 -160 -19 -213 20 -59 88 -121 156 -141 172
-50 303 42 307 215 1 33 -1 62 -3 64 -3 3 -19 8 -36 11 l-32 7 5 -43 c7 -64
-12 -121 -52 -157 -46 -40 -94 -48 -161 -27 -130 41 -170 165 -88 273 l24 32
-23 6 c-12 4 -30 9 -39 11 -12 4 -23 -7 -39 -38z" />
        <path d="M7126 5359 c-115 -32 -210 -60 -213 -62 -2 -2 11 -57 29 -122 l32
-117 30 6 c16 4 31 7 32 9 2 2 -7 41 -20 88 l-24 86 137 37 c244 67 241 66
241 86 0 28 -11 50 -24 49 -6 -1 -105 -27 -220 -60z" />
        <path d="M7658 4969 c-22 -7 -52 -27 -73 -50 -30 -34 -35 -46 -35 -89 0 -65
25 -93 78 -88 44 4 69 39 58 82 -6 25 -19 34 -71 51 -19 6 -18 8 9 31 38 33
91 30 119 -7 39 -53 32 -177 -15 -239 -11 -16 -60 -63 -109 -105 -87 -75 -89
-78 -89 -121 l0 -44 185 0 185 0 0 49 c0 26 3 69 6 95 6 42 5 46 -14 46 -16 0
-21 -7 -24 -32 l-3 -33 -120 -3 -120 -3 101 70 c116 81 168 134 183 188 15 52
14 60 -10 110 -37 76 -147 118 -241 92z" />
        <path d="M8073 4963 c-85 -3 -93 -6 -93 -23 0 -17 7 -20 55 -20 l55 0 0 -245
0 -245 -55 0 c-48 0 -55 -2 -55 -20 0 -19 7 -20 175 -20 168 0 175 1 175 20 0
17 -7 20 -50 20 l-50 0 0 270 0 270 -32 -2 c-18 -1 -75 -4 -125 -5z" />
        <path d="M1551 4950 c-97 -23 -153 -137 -100 -204 24 -30 78 -36 103 -10 37
37 8 114 -42 114 -32 0 -27 27 8 45 52 27 93 18 115 -26 22 -42 19 -151 -5
-198 -17 -34 -156 -172 -196 -194 -9 -5 -14 -25 -14 -57 l0 -50 179 0 178 0 7
46 c11 85 8 144 -9 144 -8 0 -15 -8 -15 -18 0 -10 -6 -26 -13 -35 -10 -15 -27
-17 -120 -15 l-109 3 109 76 c124 87 164 135 171 208 8 82 -46 149 -138 170
-51 12 -62 12 -109 1z" />
        <path d="M1996 4950 c-37 -11 -92 -64 -116 -110 -43 -84 -50 -220 -15 -322 23
-66 86 -135 136 -148 177 -48 304 251 198 468 -45 92 -125 136 -203 112z m75
-62 c10 -24 14 -87 14 -239 0 -189 -2 -209 -19 -228 -25 -27 -42 -27 -58 2
-18 30 -18 430 -1 470 17 38 47 35 64 -5z" />
        <path d="M7730 4108 c-105 -573 -394 -1116 -816 -1534 -720 -714 -1753 -1000
-2734 -758 -670 166 -1253 560 -1661 1124 -238 328 -408 711 -490 1104 -18 86
-26 106 -40 106 -10 0 -20 -4 -24 -9 -7 -12 36 -216 70 -328 112 -371 269
-679 504 -988 89 -118 370 -403 491 -499 882 -701 2088 -841 3107 -361 463
218 882 577 1175 1005 231 337 388 717 467 1133 26 133 26 127 -3 127 -22 0
-24 -7 -46 -122z" />
        <path d="M7995 4193 c-66 -378 -141 -622 -280 -910 -171 -355 -365 -623 -651
-903 -166 -162 -263 -241 -449 -365 -776 -518 -1729 -665 -2618 -405 -825 241
-1516 809 -1918 1575 -140 267 -243 564 -304 877 l-17 86 -37 -5 c-20 -3 -39
-8 -43 -12 -4 -4 4 -60 17 -126 161 -791 601 -1487 1241 -1965 433 -324 923
-527 1469 -610 179 -28 575 -38 762 -21 633 60 1227 298 1723 691 126 100 410
382 504 500 307 389 510 799 625 1260 27 108 73 352 68 356 -1 1 -21 5 -44 9
l-42 7 -6 -39z" />
        <path d="M5708 2707 c-153 -63 -163 -72 -134 -112 13 -18 15 -18 67 3 29 12
56 19 59 15 4 -5 38 -82 75 -173 37 -91 71 -168 74 -172 3 -4 21 0 39 7 l32
14 -19 48 c-11 26 -45 108 -75 182 -31 74 -55 135 -54 136 2 1 26 11 53 22 44
18 50 23 48 48 -1 16 -6 32 -10 36 -4 4 -74 -20 -155 -54z" />
        <path d="M3980 2748 c-2 -13 -30 -457 -30 -470 0 -22 60 -43 75 -26 24 26 281
343 288 355 5 8 -5 18 -29 28 -32 13 -38 13 -48 1 -136 -177 -202 -254 -204
-241 -2 8 1 71 7 141 17 190 17 190 -20 203 -33 11 -39 13 -39 9z" />
        <path d="M5382 2603 c-16 -3 -21 -10 -18 -21 3 -9 26 -102 51 -207 58 -241 53
-225 78 -225 54 1 54 4 -3 239 -57 233 -52 225 -108 214z" />
        <path d="M4455 2557 c-29 -168 -62 -423 -54 -428 13 -8 279 -43 284 -37 3 2 7
18 11 34 l6 31 -100 13 c-56 7 -106 16 -112 20 -15 9 -2 120 14 119 6 0 47 -6
91 -13 44 -8 84 -10 88 -6 5 4 7 20 5 36 -3 28 -5 29 -94 42 l-91 14 8 46 c4
26 8 54 8 63 1 15 11 14 114 -1 61 -10 113 -17 114 -16 0 0 3 17 5 36 l3 34
-115 17 c-63 10 -129 20 -147 23 -30 4 -33 2 -38 -27z" />
        <path d="M5033 2551 c-49 -13 -83 -39 -99 -76 -17 -41 -17 -58 -3 -108 13 -49
41 -66 138 -81 44 -7 87 -19 96 -26 25 -21 19 -67 -12 -87 -35 -23 -117 -23
-160 0 -32 17 -32 17 -53 -13 l-21 -30 32 -19 c67 -41 205 -36 263 10 54 42
58 144 7 193 -21 20 -47 30 -110 41 -97 17 -113 27 -109 69 2 25 11 35 41 50
39 18 45 18 134 -9 17 -6 25 -1 38 24 l16 32 -37 15 c-45 19 -119 26 -161 15z" />
    </g>
</svg>
